G04 #@! TF.FileFunction,Legend,Top*
%FSLAX46Y46*%
G04 Gerber Fmt 4.6, Leading zero omitted, Abs format (unit mm)*
G04 Created by KiCad (PCBNEW 4.0.7) date 07/06/18 17:30:39*
%MOMM*%
%LPD*%
G01*
G04 APERTURE LIST*
%ADD10C,0.100000*%
%ADD11C,0.125000*%
%ADD12C,0.120000*%
%ADD13C,0.150000*%
G04 APERTURE END LIST*
D10*
D11*
X93677610Y-81222067D02*
X93915705Y-81055400D01*
X93677610Y-80936353D02*
X94177610Y-80936353D01*
X94177610Y-81126829D01*
X94153800Y-81174448D01*
X94129990Y-81198257D01*
X94082371Y-81222067D01*
X94010943Y-81222067D01*
X93963324Y-81198257D01*
X93939514Y-81174448D01*
X93915705Y-81126829D01*
X93915705Y-80936353D01*
X94177610Y-81388734D02*
X93677610Y-81722067D01*
X94177610Y-81722067D02*
X93677610Y-81388734D01*
X94179200Y-93760171D02*
X94203010Y-93712552D01*
X94203010Y-93641124D01*
X94179200Y-93569695D01*
X94131581Y-93522076D01*
X94083962Y-93498267D01*
X93988724Y-93474457D01*
X93917295Y-93474457D01*
X93822057Y-93498267D01*
X93774438Y-93522076D01*
X93726819Y-93569695D01*
X93703010Y-93641124D01*
X93703010Y-93688743D01*
X93726819Y-93760171D01*
X93750629Y-93783981D01*
X93917295Y-93783981D01*
X93917295Y-93688743D01*
X94036343Y-93998267D02*
X93703010Y-93998267D01*
X93988724Y-93998267D02*
X94012533Y-94022076D01*
X94036343Y-94069695D01*
X94036343Y-94141124D01*
X94012533Y-94188743D01*
X93964914Y-94212552D01*
X93703010Y-94212552D01*
X93703010Y-94664933D02*
X94203010Y-94664933D01*
X93726819Y-94664933D02*
X93703010Y-94617314D01*
X93703010Y-94522076D01*
X93726819Y-94474457D01*
X93750629Y-94450648D01*
X93798248Y-94426838D01*
X93941105Y-94426838D01*
X93988724Y-94450648D01*
X94012533Y-94474457D01*
X94036343Y-94522076D01*
X94036343Y-94617314D01*
X94012533Y-94664933D01*
X94152210Y-96577163D02*
X94152210Y-96339068D01*
X93914114Y-96315258D01*
X93937924Y-96339068D01*
X93961733Y-96386687D01*
X93961733Y-96505734D01*
X93937924Y-96553353D01*
X93914114Y-96577163D01*
X93866495Y-96600972D01*
X93747448Y-96600972D01*
X93699829Y-96577163D01*
X93676019Y-96553353D01*
X93652210Y-96505734D01*
X93652210Y-96386687D01*
X93676019Y-96339068D01*
X93699829Y-96315258D01*
X94152210Y-96743829D02*
X93652210Y-96910496D01*
X94152210Y-97077162D01*
X102088190Y-96691437D02*
X102088190Y-96929532D01*
X102326286Y-96953342D01*
X102302476Y-96929532D01*
X102278667Y-96881913D01*
X102278667Y-96762866D01*
X102302476Y-96715247D01*
X102326286Y-96691437D01*
X102373905Y-96667628D01*
X102492952Y-96667628D01*
X102540571Y-96691437D01*
X102564381Y-96715247D01*
X102588190Y-96762866D01*
X102588190Y-96881913D01*
X102564381Y-96929532D01*
X102540571Y-96953342D01*
X102088190Y-96524771D02*
X102588190Y-96358104D01*
X102088190Y-96191438D01*
X102112000Y-91278829D02*
X102088190Y-91326448D01*
X102088190Y-91397876D01*
X102112000Y-91469305D01*
X102159619Y-91516924D01*
X102207238Y-91540733D01*
X102302476Y-91564543D01*
X102373905Y-91564543D01*
X102469143Y-91540733D01*
X102516762Y-91516924D01*
X102564381Y-91469305D01*
X102588190Y-91397876D01*
X102588190Y-91350257D01*
X102564381Y-91278829D01*
X102540571Y-91255019D01*
X102373905Y-91255019D01*
X102373905Y-91350257D01*
X102254857Y-91040733D02*
X102588190Y-91040733D01*
X102302476Y-91040733D02*
X102278667Y-91016924D01*
X102254857Y-90969305D01*
X102254857Y-90897876D01*
X102278667Y-90850257D01*
X102326286Y-90826448D01*
X102588190Y-90826448D01*
X102588190Y-90374067D02*
X102088190Y-90374067D01*
X102564381Y-90374067D02*
X102588190Y-90421686D01*
X102588190Y-90516924D01*
X102564381Y-90564543D01*
X102540571Y-90588352D01*
X102492952Y-90612162D01*
X102350095Y-90612162D01*
X102302476Y-90588352D01*
X102278667Y-90564543D01*
X102254857Y-90516924D01*
X102254857Y-90421686D01*
X102278667Y-90374067D01*
X100486400Y-91177229D02*
X100462590Y-91224848D01*
X100462590Y-91296276D01*
X100486400Y-91367705D01*
X100534019Y-91415324D01*
X100581638Y-91439133D01*
X100676876Y-91462943D01*
X100748305Y-91462943D01*
X100843543Y-91439133D01*
X100891162Y-91415324D01*
X100938781Y-91367705D01*
X100962590Y-91296276D01*
X100962590Y-91248657D01*
X100938781Y-91177229D01*
X100914971Y-91153419D01*
X100748305Y-91153419D01*
X100748305Y-91248657D01*
X100629257Y-90939133D02*
X100962590Y-90939133D01*
X100676876Y-90939133D02*
X100653067Y-90915324D01*
X100629257Y-90867705D01*
X100629257Y-90796276D01*
X100653067Y-90748657D01*
X100700686Y-90724848D01*
X100962590Y-90724848D01*
X100962590Y-90272467D02*
X100462590Y-90272467D01*
X100938781Y-90272467D02*
X100962590Y-90320086D01*
X100962590Y-90415324D01*
X100938781Y-90462943D01*
X100914971Y-90486752D01*
X100867352Y-90510562D01*
X100724495Y-90510562D01*
X100676876Y-90486752D01*
X100653067Y-90462943D01*
X100629257Y-90415324D01*
X100629257Y-90320086D01*
X100653067Y-90272467D01*
X100411790Y-96716837D02*
X100411790Y-96954932D01*
X100649886Y-96978742D01*
X100626076Y-96954932D01*
X100602267Y-96907313D01*
X100602267Y-96788266D01*
X100626076Y-96740647D01*
X100649886Y-96716837D01*
X100697505Y-96693028D01*
X100816552Y-96693028D01*
X100864171Y-96716837D01*
X100887981Y-96740647D01*
X100911790Y-96788266D01*
X100911790Y-96907313D01*
X100887981Y-96954932D01*
X100864171Y-96978742D01*
X100411790Y-96550171D02*
X100911790Y-96383504D01*
X100411790Y-96216838D01*
X102061200Y-84293829D02*
X102037390Y-84341448D01*
X102037390Y-84412876D01*
X102061200Y-84484305D01*
X102108819Y-84531924D01*
X102156438Y-84555733D01*
X102251676Y-84579543D01*
X102323105Y-84579543D01*
X102418343Y-84555733D01*
X102465962Y-84531924D01*
X102513581Y-84484305D01*
X102537390Y-84412876D01*
X102537390Y-84365257D01*
X102513581Y-84293829D01*
X102489771Y-84270019D01*
X102323105Y-84270019D01*
X102323105Y-84365257D01*
X102204057Y-84055733D02*
X102537390Y-84055733D01*
X102251676Y-84055733D02*
X102227867Y-84031924D01*
X102204057Y-83984305D01*
X102204057Y-83912876D01*
X102227867Y-83865257D01*
X102275486Y-83841448D01*
X102537390Y-83841448D01*
X102537390Y-83389067D02*
X102037390Y-83389067D01*
X102513581Y-83389067D02*
X102537390Y-83436686D01*
X102537390Y-83531924D01*
X102513581Y-83579543D01*
X102489771Y-83603352D01*
X102442152Y-83627162D01*
X102299295Y-83627162D01*
X102251676Y-83603352D01*
X102227867Y-83579543D01*
X102204057Y-83531924D01*
X102204057Y-83436686D01*
X102227867Y-83389067D01*
X102037390Y-81324437D02*
X102037390Y-81562532D01*
X102275486Y-81586342D01*
X102251676Y-81562532D01*
X102227867Y-81514913D01*
X102227867Y-81395866D01*
X102251676Y-81348247D01*
X102275486Y-81324437D01*
X102323105Y-81300628D01*
X102442152Y-81300628D01*
X102489771Y-81324437D01*
X102513581Y-81348247D01*
X102537390Y-81395866D01*
X102537390Y-81514913D01*
X102513581Y-81562532D01*
X102489771Y-81586342D01*
X102037390Y-81157771D02*
X102537390Y-80991104D01*
X102037390Y-80824438D01*
X102461190Y-79491590D02*
X101961190Y-79491590D01*
X101961190Y-79372543D01*
X101985000Y-79301114D01*
X102032619Y-79253495D01*
X102080238Y-79229686D01*
X102175476Y-79205876D01*
X102246905Y-79205876D01*
X102342143Y-79229686D01*
X102389762Y-79253495D01*
X102437381Y-79301114D01*
X102461190Y-79372543D01*
X102461190Y-79491590D01*
X102461190Y-78777305D02*
X102199286Y-78777305D01*
X102151667Y-78801114D01*
X102127857Y-78848733D01*
X102127857Y-78943971D01*
X102151667Y-78991590D01*
X102437381Y-78777305D02*
X102461190Y-78824924D01*
X102461190Y-78943971D01*
X102437381Y-78991590D01*
X102389762Y-79015400D01*
X102342143Y-79015400D01*
X102294524Y-78991590D01*
X102270714Y-78943971D01*
X102270714Y-78824924D01*
X102246905Y-78777305D01*
X102127857Y-78610638D02*
X102127857Y-78420162D01*
X101961190Y-78539209D02*
X102389762Y-78539209D01*
X102437381Y-78515400D01*
X102461190Y-78467781D01*
X102461190Y-78420162D01*
X102461190Y-78039210D02*
X102199286Y-78039210D01*
X102151667Y-78063019D01*
X102127857Y-78110638D01*
X102127857Y-78205876D01*
X102151667Y-78253495D01*
X102437381Y-78039210D02*
X102461190Y-78086829D01*
X102461190Y-78205876D01*
X102437381Y-78253495D01*
X102389762Y-78277305D01*
X102342143Y-78277305D01*
X102294524Y-78253495D01*
X102270714Y-78205876D01*
X102270714Y-78086829D01*
X102246905Y-78039210D01*
D12*
X94402600Y-97900800D02*
X97062600Y-97900800D01*
X94402600Y-80060800D02*
X94402600Y-97900800D01*
X97062600Y-80060800D02*
X97062600Y-97900800D01*
X94402600Y-80060800D02*
X97062600Y-80060800D01*
X94402600Y-78790800D02*
X94402600Y-77460800D01*
X94402600Y-77460800D02*
X95732600Y-77460800D01*
X99203200Y-97900800D02*
X101863200Y-97900800D01*
X99203200Y-97840800D02*
X99203200Y-97900800D01*
X101863200Y-97840800D02*
X101863200Y-97900800D01*
X99203200Y-97840800D02*
X101863200Y-97840800D01*
X99203200Y-96570800D02*
X99203200Y-95240800D01*
X99203200Y-95240800D02*
X100533200Y-95240800D01*
X99177800Y-92262000D02*
X101837800Y-92262000D01*
X99177800Y-92202000D02*
X99177800Y-92262000D01*
X101837800Y-92202000D02*
X101837800Y-92262000D01*
X99177800Y-92202000D02*
X101837800Y-92202000D01*
X99177800Y-90932000D02*
X99177800Y-89602000D01*
X99177800Y-89602000D02*
X100507800Y-89602000D01*
X99152400Y-85251600D02*
X101812400Y-85251600D01*
X99152400Y-80111600D02*
X99152400Y-85251600D01*
X101812400Y-80111600D02*
X101812400Y-85251600D01*
X99152400Y-80111600D02*
X101812400Y-80111600D01*
X99152400Y-78841600D02*
X99152400Y-77511600D01*
X99152400Y-77511600D02*
X100482400Y-77511600D01*
D13*
M02*
