G04 #@! TF.FileFunction,Copper,L1,Top,Signal*
%FSLAX46Y46*%
G04 Gerber Fmt 4.6, Leading zero omitted, Abs format (unit mm)*
G04 Created by KiCad (PCBNEW 4.0.7) date 07/06/18 17:30:39*
%MOMM*%
%LPD*%
G01*
G04 APERTURE LIST*
%ADD10C,0.100000*%
%ADD11R,1.700000X1.700000*%
%ADD12O,1.700000X1.700000*%
%ADD13C,0.600000*%
%ADD14C,1.000000*%
G04 APERTURE END LIST*
D10*
D11*
X95732600Y-78790800D03*
D12*
X95732600Y-81330800D03*
X95732600Y-83870800D03*
X95732600Y-86410800D03*
X95732600Y-88950800D03*
X95732600Y-91490800D03*
X95732600Y-94030800D03*
X95732600Y-96570800D03*
D11*
X100533200Y-96570800D03*
X100507800Y-90932000D03*
X100482400Y-78841600D03*
D12*
X100482400Y-81381600D03*
X100482400Y-83921600D03*
D13*
X98120200Y-84734400D03*
X98120200Y-96545400D03*
D14*
X95732600Y-81330800D02*
X100482400Y-78841600D01*
X95732600Y-94030800D02*
X97409000Y-94030800D01*
X97409000Y-94030800D02*
X100507800Y-90932000D01*
X100507800Y-90932000D02*
X100507800Y-83947000D01*
X100507800Y-83947000D02*
X100482400Y-83921600D01*
X98120200Y-96570800D02*
X98120200Y-96545400D01*
X100482400Y-81381600D02*
X99339400Y-81381600D01*
X99339400Y-81381600D02*
X98120200Y-82600800D01*
X98120200Y-82600800D02*
X98120200Y-84734400D01*
X98120200Y-84734400D02*
X98120200Y-84759800D01*
X95732600Y-96570800D02*
X98120200Y-96570800D01*
X98120200Y-96570800D02*
X100533200Y-96570800D01*
X100482400Y-96621600D02*
X100533200Y-96570800D01*
M02*
