G04 #@! TF.FileFunction,Legend,Bot*
%FSLAX46Y46*%
G04 Gerber Fmt 4.6, Leading zero omitted, Abs format (unit mm)*
G04 Created by KiCad (PCBNEW 4.0.7) date 07/06/18 17:30:39*
%MOMM*%
%LPD*%
G01*
G04 APERTURE LIST*
%ADD10C,0.100000*%
%ADD11C,0.125000*%
G04 APERTURE END LIST*
D10*
D11*
X99192590Y-86512496D02*
X99692590Y-86679163D01*
X99192590Y-86845829D01*
X99692590Y-87274400D02*
X99692590Y-86988686D01*
X99692590Y-87131543D02*
X99192590Y-87131543D01*
X99264019Y-87083924D01*
X99311638Y-87036305D01*
X99335448Y-86988686D01*
X99644971Y-87488686D02*
X99668781Y-87512495D01*
X99692590Y-87488686D01*
X99668781Y-87464876D01*
X99644971Y-87488686D01*
X99692590Y-87488686D01*
X99192590Y-87822019D02*
X99192590Y-87869638D01*
X99216400Y-87917257D01*
X99240210Y-87941066D01*
X99287829Y-87964876D01*
X99383067Y-87988685D01*
X99502114Y-87988685D01*
X99597352Y-87964876D01*
X99644971Y-87941066D01*
X99668781Y-87917257D01*
X99692590Y-87869638D01*
X99692590Y-87822019D01*
X99668781Y-87774400D01*
X99644971Y-87750590D01*
X99597352Y-87726781D01*
X99502114Y-87702971D01*
X99383067Y-87702971D01*
X99287829Y-87726781D01*
X99240210Y-87750590D01*
X99216400Y-87774400D01*
X99192590Y-87822019D01*
X98371790Y-85816715D02*
X97871790Y-85816715D01*
X98371790Y-86102429D01*
X97871790Y-86102429D01*
X98371790Y-86411953D02*
X98347981Y-86364334D01*
X98324171Y-86340525D01*
X98276552Y-86316715D01*
X98133695Y-86316715D01*
X98086076Y-86340525D01*
X98062267Y-86364334D01*
X98038457Y-86411953D01*
X98038457Y-86483382D01*
X98062267Y-86531001D01*
X98086076Y-86554810D01*
X98133695Y-86578620D01*
X98276552Y-86578620D01*
X98324171Y-86554810D01*
X98347981Y-86531001D01*
X98371790Y-86483382D01*
X98371790Y-86411953D01*
X98371790Y-87007191D02*
X97871790Y-87007191D01*
X98347981Y-87007191D02*
X98371790Y-86959572D01*
X98371790Y-86864334D01*
X98347981Y-86816715D01*
X98324171Y-86792906D01*
X98276552Y-86769096D01*
X98133695Y-86769096D01*
X98086076Y-86792906D01*
X98062267Y-86816715D01*
X98038457Y-86864334D01*
X98038457Y-86959572D01*
X98062267Y-87007191D01*
X98347981Y-87435763D02*
X98371790Y-87388144D01*
X98371790Y-87292906D01*
X98347981Y-87245287D01*
X98300362Y-87221477D01*
X98109886Y-87221477D01*
X98062267Y-87245287D01*
X98038457Y-87292906D01*
X98038457Y-87388144D01*
X98062267Y-87435763D01*
X98109886Y-87459572D01*
X98157505Y-87459572D01*
X98205124Y-87221477D01*
X98371790Y-87673858D02*
X97871790Y-87673858D01*
X98228933Y-87840524D01*
X97871790Y-88007191D01*
X98371790Y-88007191D01*
X98324171Y-88531001D02*
X98347981Y-88507191D01*
X98371790Y-88435763D01*
X98371790Y-88388144D01*
X98347981Y-88316715D01*
X98300362Y-88269096D01*
X98252743Y-88245287D01*
X98157505Y-88221477D01*
X98086076Y-88221477D01*
X97990838Y-88245287D01*
X97943219Y-88269096D01*
X97895600Y-88316715D01*
X97871790Y-88388144D01*
X97871790Y-88435763D01*
X97895600Y-88507191D01*
X97919410Y-88531001D01*
X97871790Y-88745287D02*
X98276552Y-88745287D01*
X98324171Y-88769096D01*
X98347981Y-88792906D01*
X98371790Y-88840525D01*
X98371790Y-88935763D01*
X98347981Y-88983382D01*
X98324171Y-89007191D01*
X98276552Y-89031001D01*
X97871790Y-89031001D01*
X98371790Y-89650049D02*
X97871790Y-89650049D01*
X97871790Y-89769096D01*
X97895600Y-89840525D01*
X97943219Y-89888144D01*
X97990838Y-89911953D01*
X98086076Y-89935763D01*
X98157505Y-89935763D01*
X98252743Y-89911953D01*
X98300362Y-89888144D01*
X98347981Y-89840525D01*
X98371790Y-89769096D01*
X98371790Y-89650049D01*
X98371790Y-90411953D02*
X98371790Y-90126239D01*
X98371790Y-90269096D02*
X97871790Y-90269096D01*
X97943219Y-90221477D01*
X97990838Y-90173858D01*
X98014648Y-90126239D01*
X98371790Y-91007191D02*
X98038457Y-91007191D01*
X98086076Y-91007191D02*
X98062267Y-91031000D01*
X98038457Y-91078619D01*
X98038457Y-91150048D01*
X98062267Y-91197667D01*
X98109886Y-91221476D01*
X98371790Y-91221476D01*
X98109886Y-91221476D02*
X98062267Y-91245286D01*
X98038457Y-91292905D01*
X98038457Y-91364333D01*
X98062267Y-91411953D01*
X98109886Y-91435762D01*
X98371790Y-91435762D01*
X98371790Y-91673858D02*
X98038457Y-91673858D01*
X97871790Y-91673858D02*
X97895600Y-91650048D01*
X97919410Y-91673858D01*
X97895600Y-91697667D01*
X97871790Y-91673858D01*
X97919410Y-91673858D01*
X98038457Y-91911953D02*
X98371790Y-91911953D01*
X98086076Y-91911953D02*
X98062267Y-91935762D01*
X98038457Y-91983381D01*
X98038457Y-92054810D01*
X98062267Y-92102429D01*
X98109886Y-92126238D01*
X98371790Y-92126238D01*
X98371790Y-92364334D02*
X98038457Y-92364334D01*
X97871790Y-92364334D02*
X97895600Y-92340524D01*
X97919410Y-92364334D01*
X97895600Y-92388143D01*
X97871790Y-92364334D01*
X97919410Y-92364334D01*
X98084486Y-77309258D02*
X98084486Y-77475924D01*
X98346390Y-77547353D02*
X98346390Y-77309258D01*
X97846390Y-77309258D01*
X97846390Y-77547353D01*
X98346390Y-77975924D02*
X98084486Y-77975924D01*
X98036867Y-77952115D01*
X98013057Y-77904496D01*
X98013057Y-77809258D01*
X98036867Y-77761639D01*
X98322581Y-77975924D02*
X98346390Y-77928305D01*
X98346390Y-77809258D01*
X98322581Y-77761639D01*
X98274962Y-77737829D01*
X98227343Y-77737829D01*
X98179724Y-77761639D01*
X98155914Y-77809258D01*
X98155914Y-77928305D01*
X98132105Y-77975924D01*
X98013057Y-78428305D02*
X98417819Y-78428305D01*
X98465438Y-78404496D01*
X98489248Y-78380686D01*
X98513057Y-78333067D01*
X98513057Y-78261639D01*
X98489248Y-78214020D01*
X98322581Y-78428305D02*
X98346390Y-78380686D01*
X98346390Y-78285448D01*
X98322581Y-78237829D01*
X98298771Y-78214020D01*
X98251152Y-78190210D01*
X98108295Y-78190210D01*
X98060676Y-78214020D01*
X98036867Y-78237829D01*
X98013057Y-78285448D01*
X98013057Y-78380686D01*
X98036867Y-78428305D01*
X98346390Y-78737829D02*
X98322581Y-78690210D01*
X98274962Y-78666401D01*
X97846390Y-78666401D01*
X98322581Y-79118782D02*
X98346390Y-79071163D01*
X98346390Y-78975925D01*
X98322581Y-78928306D01*
X98274962Y-78904496D01*
X98084486Y-78904496D01*
X98036867Y-78928306D01*
X98013057Y-78975925D01*
X98013057Y-79071163D01*
X98036867Y-79118782D01*
X98084486Y-79142591D01*
X98132105Y-79142591D01*
X98179724Y-78904496D01*
X98346390Y-79356877D02*
X97846390Y-79356877D01*
X97846390Y-79475924D01*
X97870200Y-79547353D01*
X97917819Y-79594972D01*
X97965438Y-79618781D01*
X98060676Y-79642591D01*
X98132105Y-79642591D01*
X98227343Y-79618781D01*
X98274962Y-79594972D01*
X98322581Y-79547353D01*
X98346390Y-79475924D01*
X98346390Y-79356877D01*
X98322581Y-80047353D02*
X98346390Y-79999734D01*
X98346390Y-79904496D01*
X98322581Y-79856877D01*
X98274962Y-79833067D01*
X98084486Y-79833067D01*
X98036867Y-79856877D01*
X98013057Y-79904496D01*
X98013057Y-79999734D01*
X98036867Y-80047353D01*
X98084486Y-80071162D01*
X98132105Y-80071162D01*
X98179724Y-79833067D01*
X98322581Y-80499733D02*
X98346390Y-80452114D01*
X98346390Y-80356876D01*
X98322581Y-80309257D01*
X98298771Y-80285448D01*
X98251152Y-80261638D01*
X98108295Y-80261638D01*
X98060676Y-80285448D01*
X98036867Y-80309257D01*
X98013057Y-80356876D01*
X98013057Y-80452114D01*
X98036867Y-80499733D01*
X98346390Y-80785447D02*
X98322581Y-80737828D01*
X98298771Y-80714019D01*
X98251152Y-80690209D01*
X98108295Y-80690209D01*
X98060676Y-80714019D01*
X98036867Y-80737828D01*
X98013057Y-80785447D01*
X98013057Y-80856876D01*
X98036867Y-80904495D01*
X98060676Y-80928304D01*
X98108295Y-80952114D01*
X98251152Y-80952114D01*
X98298771Y-80928304D01*
X98322581Y-80904495D01*
X98346390Y-80856876D01*
X98346390Y-80785447D01*
X98346390Y-81166400D02*
X98013057Y-81166400D01*
X98108295Y-81166400D02*
X98060676Y-81190209D01*
X98036867Y-81214019D01*
X98013057Y-81261638D01*
X98013057Y-81309257D01*
X98346390Y-81690209D02*
X98084486Y-81690209D01*
X98036867Y-81666400D01*
X98013057Y-81618781D01*
X98013057Y-81523543D01*
X98036867Y-81475924D01*
X98322581Y-81690209D02*
X98346390Y-81642590D01*
X98346390Y-81523543D01*
X98322581Y-81475924D01*
X98274962Y-81452114D01*
X98227343Y-81452114D01*
X98179724Y-81475924D01*
X98155914Y-81523543D01*
X98155914Y-81642590D01*
X98132105Y-81690209D01*
X98013057Y-81856876D02*
X98013057Y-82047352D01*
X97846390Y-81928305D02*
X98274962Y-81928305D01*
X98322581Y-81952114D01*
X98346390Y-81999733D01*
X98346390Y-82047352D01*
X98346390Y-82214019D02*
X98013057Y-82214019D01*
X97846390Y-82214019D02*
X97870200Y-82190209D01*
X97894010Y-82214019D01*
X97870200Y-82237828D01*
X97846390Y-82214019D01*
X97894010Y-82214019D01*
X98346390Y-82523542D02*
X98322581Y-82475923D01*
X98298771Y-82452114D01*
X98251152Y-82428304D01*
X98108295Y-82428304D01*
X98060676Y-82452114D01*
X98036867Y-82475923D01*
X98013057Y-82523542D01*
X98013057Y-82594971D01*
X98036867Y-82642590D01*
X98060676Y-82666399D01*
X98108295Y-82690209D01*
X98251152Y-82690209D01*
X98298771Y-82666399D01*
X98322581Y-82642590D01*
X98346390Y-82594971D01*
X98346390Y-82523542D01*
X98013057Y-82904495D02*
X98346390Y-82904495D01*
X98060676Y-82904495D02*
X98036867Y-82928304D01*
X98013057Y-82975923D01*
X98013057Y-83047352D01*
X98036867Y-83094971D01*
X98084486Y-83118780D01*
X98346390Y-83118780D01*
X98322581Y-83333066D02*
X98346390Y-83380685D01*
X98346390Y-83475923D01*
X98322581Y-83523542D01*
X98274962Y-83547352D01*
X98251152Y-83547352D01*
X98203533Y-83523542D01*
X98179724Y-83475923D01*
X98179724Y-83404495D01*
X98155914Y-83356876D01*
X98108295Y-83333066D01*
X98084486Y-83333066D01*
X98036867Y-83356876D01*
X98013057Y-83404495D01*
X98013057Y-83475923D01*
X98036867Y-83523542D01*
M02*
